
<svg xmlns="http://www.w3.org/2000/svg" version="1.1" xmlns:xlink="http://www.w3.org/1999/xlink" preserveAspectRatio="none" x="0px" y="0px" width="40px" height="40px" viewBox="0 0 40 40">
<defs>
<g id="Layer0_0_FILL">
<path fill="#FFFFFF" stroke="none" d="
M 20.95 14.4
Q 23.310546875 11.571484375 24.85 9.9 22.5345703125 5.3736328125 17.7 5.1 17.45 5.1 17.2 5.1 16.95 5.1 16.8 5.1
L 16.7 5.1
Q 16.55 5.1 16.3 5.1 16.05 5.1 15.8 5.1 10.5 5.4 8.05 10.8 6.5 16.35 9.6 19.8 12.95 23.45 13.7 28.35
L 19.8 28.35
Q 20.183203125 25.2201171875 21.65 22.6 17.05 22.2349609375 17.05 19.55 17.05 19.3 17.2 19.15 19 16.7 20.95 14.4
M 13.35 8.2
Q 13.6 8.1 13.85 8.2 14.1 8.2 14.25 8.45 14.35 8.75 14.25 9 14.1 9.25 13.95 9.35 11.25 10.8 10.75 14.25 10.75 14.55 10.5 14.65 10.35 14.8 10.1 14.8 9.7 14.8 9.6 14.55 9.45 14.25 9.45 14 10.1 9.75 13.35 8.2
M 16.3 8.2
Q 16.05 8.35 15.9 8.35 15.65 8.35 15.4 8.2 15.25 8.1 15.25 7.85 15.25 7.55 15.4 7.3 15.65 7.2 15.9 7.2 16.05 7.2 16.3 7.3 16.4 7.55 16.4 7.85 16.4 8.1 16.3 8.2 Z"/>

<path fill="#000000" stroke="none" d="
M 15.9 8.35
Q 16.05 8.35 16.3 8.2 16.4 8.1 16.4 7.85 16.4 7.55 16.3 7.3 16.05 7.2 15.9 7.2 15.65 7.2 15.4 7.3 15.25 7.55 15.25 7.85 15.25 8.1 15.4 8.2 15.65 8.35 15.9 8.35
M 13.85 8.2
Q 13.6 8.1 13.35 8.2 10.1 9.75 9.45 14 9.45 14.25 9.6 14.55 9.7 14.8 10.1 14.8 10.35 14.8 10.5 14.65 10.75 14.55 10.75 14.25 11.25 10.8 13.95 9.35 14.1 9.25 14.25 9 14.35 8.75 14.25 8.45 14.1 8.2 13.85 8.2
M 24.85 9.9
Q 25.4388671875 9.2828125 25.9 8.8 23.1755859375 3.9380859375 17.85 3.85 17.45 3.7 17.2 3.7 16.95 3.7 16.8 3.7
L 16.7 3.7
Q 16.4 3.7 16.3 3.85 15.9 3.85 15.65 3.85 9.6 4.1 6.9 10.25 6.9 10.4 6.75 10.4 4.95 16.7 8.55 20.7 11.9 24.2 12.45 29.1 12.45 29.35 12.55 29.5 12.8 29.6 13.05 29.6
L 20.4 29.6
Q 20.7 29.6 20.8 29.5 21.05 29.35 21.05 29.1 21.3763671875 26.19296875 22.6 23.75
L 22.6 22.65
Q 22.1013671875 22.6365234375 21.65 22.6 20.183203125 25.2201171875 19.8 28.35
L 13.7 28.35
Q 12.95 23.45 9.6 19.8 6.5 16.35 8.05 10.8 10.5 5.4 15.8 5.1 16.05 5.1 16.3 5.1 16.55 5.1 16.7 5.1
L 16.8 5.1
Q 16.95 5.1 17.2 5.1 17.45 5.1 17.7 5.1 22.5345703125 5.3736328125 24.85 9.9
M 13.6 33.5
Q 13.35 33.5 13.05 33.6 12.95 33.85 12.95 34.15 12.95 34.4 13.05 34.65 13.35 34.75 13.6 34.75
L 14.35 34.75
Q 14.35 34.9 14.35 35.05 14.35 35.65 15.15 36.2 15.8 36.6 16.8 36.6 17.7 36.6 18.5 36.2 19.25 35.65 19.25 35.05 19.25 34.9 19.25 34.75
L 20.05 34.75
Q 20.3 34.75 20.4 34.65 20.7 34.4 20.7 34.15 20.7 33.85 20.4 33.6 20.3 33.5 20.05 33.5
L 13.6 33.5
M 13.05 31.95
Q 13.35 32.2 13.6 32.2
L 20.05 32.2
Q 20.3 32.2 20.4 31.95 20.7 31.8 20.7 31.4 20.7 31.15 20.4 31.05 20.3 30.75 20.05 30.75
L 13.6 30.75
Q 13.35 30.75 13.05 31.05 12.95 31.15 12.95 31.4 12.95 31.8 13.05 31.95 Z"/>

<path fill="#6600FF" stroke="none" d="
M 25.9 8.8
Q 25.4388671875 9.2828125 24.85 9.9 23.310546875 11.571484375 20.95 14.4 19 16.7 17.2 19.15 17.05 19.3 17.05 19.55 17.05 22.2349609375 21.65 22.6 22.1013671875 22.6365234375 22.6 22.65
L 22.6 23.75 22.6 31.95
Q 22.6 32.3 22.85 32.45 23 32.7 23.4 32.7
L 29.6 32.7
Q 29.85 32.7 30.1 32.45 30.2 32.3 30.2 31.95
L 30.2 22.4
Q 35.4 22.25 35.65 22.15 35.9 22.15 36 22 36.15 21.75 36.3 21.6 36.3 21.35 36.15 21.1 33.95 18.25 31.25 13.35 30.1 11.2 28.4 7.85 28.3 7.55 28.15 7.45 27.9 7.45 27.75 7.45 27.304296875 7.45 25.9 8.8 Z"/>
</g>
</defs>

<g transform="matrix( 1, 0, 0, 1, 0,0) ">
<use xlink:href="#Layer0_0_FILL"/>
</g>
</svg>
