
<svg xmlns="http://www.w3.org/2000/svg" version="1.1" xmlns:xlink="http://www.w3.org/1999/xlink" preserveAspectRatio="none" x="0px" y="0px" width="16px" height="16px" viewBox="0 0 16 16">
<defs>
<g id="Layer1_0_FILL">
<path fill="#000000" stroke="none" d="
M 7.9 12.5
Q 7.85 12.4 7.75 12.4
L 5.25 12.4
Q 5.15 12.4 5.05 12.5 5 12.55 5 12.65 5 12.8 5.05 12.85 5.15 12.95 5.25 12.95
L 7.75 12.95
Q 7.85 12.95 7.9 12.85 8 12.8 8 12.65 8 12.55 7.9 12.5
M 7.9 13.9
Q 8 13.8 8 13.7 8 13.6 7.9 13.5 7.85 13.45 7.75 13.45
L 5.25 13.45
Q 5.15 13.45 5.05 13.5 5 13.6 5 13.7 5 13.8 5.05 13.9 5.15 13.95 5.25 13.95
L 5.55 13.95
Q 5.55 14 5.55 14.05 5.55 14.3 5.85 14.5 6.1 14.65 6.5 14.65 6.85 14.65 7.15 14.5 7.45 14.3 7.45 14.05 7.45 14 7.45 13.95
L 7.75 13.95
Q 7.85 13.95 7.9 13.9
M 10.3 4.5
L 10.3 4.45
Q 9.25 2 6.9 1.95 6.75 1.9 6.65 1.9 6.55 1.9 6.5 1.9
L 6.45 1.9
Q 6.35 1.9 6.3 1.95 6.15 1.95 6.05 1.95 3.7 2.05 2.65 4.45 2.65 4.5 2.6 4.5 1.9 6.95 3.3 8.5 4.6 9.85 4.8 11.75 4.8 11.85 4.85 11.9 4.95 11.95 5.05 11.95
L 7.9 11.95
Q 8 11.95 8.05 11.9 8.15 11.85 8.15 11.75 8.35 9.85 9.55 8.5 10.9 7 10.3 4.5
M 6.1 2.45
Q 6.2 2.45 6.3 2.45 6.4 2.45 6.45 2.45
L 6.5 2.45
Q 6.55 2.45 6.65 2.45 6.75 2.45 6.85 2.45 8.9 2.55 9.8 4.65 10.3 6.85 9.15 8.15 7.9 9.55 7.65 11.45
L 5.3 11.45
Q 5 9.55 3.7 8.15 2.5 6.8 3.1 4.65 4.05 2.55 6.1 2.45
M 5.5 3.75
Q 5.45 3.65 5.35 3.65 5.25 3.6 5.15 3.65 3.9 4.25 3.65 5.9 3.65 6 3.7 6.1 3.75 6.2 3.9 6.2 4 6.2 4.05 6.15 4.15 6.1 4.15 6 4.35 4.65 5.4 4.1 5.45 4.05 5.5 3.95 5.55 3.85 5.5 3.75
M 6.15 3.7
Q 6.2 3.7 6.3 3.65 6.35 3.6 6.35 3.5 6.35 3.4 6.3 3.3 6.2 3.25 6.15 3.25 6.05 3.25 5.95 3.3 5.9 3.4 5.9 3.5 5.9 3.6 5.95 3.65 6.05 3.7 6.15 3.7 Z"/>

<path fill="#FFFFFF" stroke="none" d="
M 6.3 2.45
Q 6.2 2.45 6.1 2.45 4.05 2.55 3.1 4.65 2.5 6.8 3.7 8.15 5 9.55 5.3 11.45
L 7.65 11.45
Q 7.9 9.55 9.15 8.15 10.3 6.85 9.8 4.65 8.9 2.55 6.85 2.45 6.75 2.45 6.65 2.45 6.55 2.45 6.5 2.45
L 6.45 2.45
Q 6.4 2.45 6.3 2.45
M 6.3 3.65
Q 6.2 3.7 6.15 3.7 6.05 3.7 5.95 3.65 5.9 3.6 5.9 3.5 5.9 3.4 5.95 3.3 6.05 3.25 6.15 3.25 6.2 3.25 6.3 3.3 6.35 3.4 6.35 3.5 6.35 3.6 6.3 3.65
M 5.35 3.65
Q 5.45 3.65 5.5 3.75 5.55 3.85 5.5 3.95 5.45 4.05 5.4 4.1 4.35 4.65 4.15 6 4.15 6.1 4.05 6.15 4 6.2 3.9 6.2 3.75 6.2 3.7 6.1 3.65 6 3.65 5.9 3.9 4.25 5.15 3.65 5.25 3.6 5.35 3.65 Z"/>
</g>

<g id="Layer0_0_FILL">
<path fill="#6600FF" stroke="none" d="
M 14 8.65
Q 13.15 7.55 12.1 5.65 11.65 4.8 11 3.5 10.95 3.4 10.9 3.35 10.8 3.35 10.75 3.35 10.35 3.35 8.1 6.05 7.35 6.95 6.65 7.9 6.6 7.95 6.6 8.05 6.6 9.2 8.75 9.25
L 8.75 12.85
Q 8.75 13 8.85 13.05 8.9 13.15 9.05 13.15
L 11.45 13.15
Q 11.55 13.15 11.65 13.05 11.7 13 11.7 12.85
L 11.7 9.15
Q 13.7 9.1 13.8 9.05 13.9 9.05 13.95 9 14 8.9 14.05 8.85 14.05 8.75 14 8.65 Z"/>
</g>
</defs>

<g transform="matrix( 1, 0, 0, 1, 0,0) ">
<use xlink:href="#Layer1_0_FILL"/>
</g>

<g transform="matrix( 1, 0, 0, 1, 0,0) ">
<use xlink:href="#Layer0_0_FILL"/>
</g>
</svg>
